<svg width="120" height="28"
  xmlns="http://www.w3.org/2000/svg">
  <path d="M6.384 21.264c1.2 0 2.664-.36 3.48-1.296l.312-2.592c-.36.216-.792.312-1.2.312-.768 0-1.536-.384-1.536-1.248 0-.768 1.032-3.888 1.296-4.8h2.76l1.008-3.696h-2.76l.984-3.672H6.624L3.792 7.944H1.536L.528 11.64h2.016L1.32 16.176c-.096.384-.168.792-.168 1.2 0 2.832 2.808 3.888 5.232 3.888zm10.364571-14.64c1.632 0 2.952-1.296 2.952-2.88 0-1.608-1.32-2.88-2.952-2.88s-2.952 1.272-2.952 2.88c0 1.584 1.32 2.88 2.952 2.88zm-2.592 14.64c.984 0 1.896-.216 2.688-.816l.048-1.488c-.456 0-.792-.144-.792-.648 0-.264.072-.528.144-.768l2.64-9.6h-6.192l-2.352 8.64c-.144.528-.24 1.104-.24 1.656 0 2.424 1.992 3.024 4.056 3.024zm22.676571 0c1.008 0 2.184-.192 3-.792l.096-1.488c-.48 0-.84-.144-.84-.672 0-.264.072-.528.144-.768l1.2-4.008c.192-.624.288-1.272.288-1.92-.024-2.4-1.56-3.912-3.936-3.912-1.68 0-3.264 1.008-4.104 2.448-.408-1.608-1.896-2.448-3.48-2.448-1.848 0-3.024 1.152-3.816 2.712l-.264-2.568-5.52.336c.024 1.296-.168 2.544-.504 3.792l-2.472 9.024h6.192l2.184-8.016c.192-.744.552-1.752 1.464-1.752.408 0 .48.48.48.792 0 .312-.072.624-.144.936l-2.088 8.04h5.976l2.04-8.016c.168-.696.456-1.752 1.344-1.752.432 0 .504.504.504.816 0 1.632-1.464 4.032-1.464 5.928 0 2.208 1.656 3.288 3.72 3.288zm8.601142 6.12c4.296 0 6.432-2.352 7.464-6.576l2.04-8.352h2.832l.696-3.504h-2.904c.36-1.536 1.104-2.256 2.904-2.256.6 0 1.176.12 1.752.288l.96-3.672c-.84-.264-1.8-.432-2.688-.432-4.968 0-7.464 1.656-8.712 6.072h-2.832l-.648 3.504h2.808l-1.968 8.376c-.432 1.872-.816 2.568-2.664 2.568-.696 0-2.088-.408-2.76-.768l-1.152 3.672c1.416.672 3.312 1.08 4.872 1.08zm18.380571-6.12c2.448 0 4.176-.504 6.048-2.088l-1.464-2.184c-.96.864-2.208 1.392-3.504 1.392-1.248 0-2.136-.504-2.136-1.848 0-.216.024-.456.072-.696 2.544-.048 7.872-.528 7.872-4.128 0-2.76-3.048-4.008-5.4-4.008-4.296 0-8.688 3.192-8.688 7.776 0 3.816 3.792 5.784 7.2 5.784zm-.84-7.104c.216-1.008 1.032-3.552 2.304-3.552.528 0 .624.408.624.84-.024 1.512-1.536 2.568-2.928 2.712zm14.204571 7.104c2.448 0 4.176-.504 6.048-2.088l-1.464-2.184c-.96.864-2.208 1.392-3.504 1.392-1.248 0-2.136-.504-2.136-1.848 0-.216.024-.456.072-.696 2.544-.048 7.872-.528 7.872-4.128 0-2.76-3.048-4.008-5.4-4.008-4.296 0-8.688 3.192-8.688 7.776 0 3.816 3.792 5.784 7.2 5.784zm-.84-7.104c.216-1.008 1.032-3.552 2.304-3.552.528 0 .624.408.624.84-.024 1.512-1.536 2.568-2.928 2.712zm10.940571 7.104c.984 0 1.872-.192 2.664-.816l.096-1.488c-.456 0-.816-.144-.816-.648 0-.264.072-.528.144-.768l3.888-14.208h-6.192l-3.6 13.248c-.144.528-.24 1.08-.24 1.632-.024 2.448 1.992 3.048 4.056 3.048zm10.628571 0c2.448 0 4.176-.504 6.048-2.088l-1.464-2.184c-.96.864-2.208 1.392-3.504 1.392-1.248 0-2.136-.504-2.136-1.848 0-.216.024-.456.072-.696 2.544-.048 7.872-.528 7.872-4.128 0-2.76-3.048-4.008-5.4-4.008-4.296 0-8.688 3.192-8.688 7.776 0 3.816 3.792 5.784 7.2 5.784zm-.84-7.104c.216-1.008 1.032-3.552 2.304-3.552.528 0 .624.408.624.84-.024 1.512-1.536 2.568-2.928 2.712zm11.036571 12.12l11.016-18.336h-4.608l-3.6 7.608-.6-7.704-6.072.336 2.016 12.816-3.36 5.28h5.208z" fill="#000" fill-rule="nonzero"/>
</svg>
